<svg width="28" height="35" viewBox="0 0 28 35" fill="none" xmlns="http://www.w3.org/2000/svg">
<g clip-path="url(#clip0_116_990)">
<path d="M12.3817 17.9977C12.2511 17.9977 12.1305 17.9479 12.03 17.8483L1.22595 7.22689C1.02494 7.03775 1.02494 6.71921 1.22595 6.52012C1.42695 6.33098 1.73851 6.32103 1.93952 6.52012L12.7335 17.1515C12.9345 17.3407 12.9345 17.6592 12.7335 17.8583C12.633 17.9578 12.5023 18.0076 12.3817 18.0076V17.9977Z" fill="#F4F4F4"/>
<path d="M0.502383 28.629C0.361679 28.629 0.231026 28.5693 0.130524 28.4598C-0.0604311 28.2508 -0.0403306 27.9422 0.170725 27.753L12.0501 17.1216C12.2511 16.9425 12.5727 16.9524 12.7637 17.1615C12.9546 17.3605 12.9345 17.6791 12.7235 17.8682L0.834041 28.4996C0.733539 28.5892 0.612936 28.629 0.502383 28.629Z" fill="#F4F4F4"/>
<path d="M27.4976 17.9976C27.367 17.9976 27.2464 17.9478 27.1459 17.8483L9.8695 0.84603C9.6685 0.656894 9.6685 0.338351 9.8695 0.139261C10.0605 -0.0498746 10.3821 -0.0598291 10.5831 0.139261L27.8494 17.1515C28.0504 17.3406 28.0504 17.6592 27.8494 17.8583C27.7489 17.9578 27.6182 18.0076 27.4976 18.0076V17.9976Z" fill="#F4F4F4"/>
<path d="M10.221 35.0001C10.0904 35.0001 9.95974 34.9503 9.86929 34.8508C9.67834 34.6517 9.67834 34.3431 9.86929 34.144L27.1457 17.1517C27.3467 16.9526 27.6582 16.9626 27.8592 17.1517C28.0502 17.3508 28.0502 17.6594 27.8592 17.8585L10.5728 34.8608C10.4723 34.9603 10.3417 35.0101 10.221 35.0101V35.0001Z" fill="#F4F4F4"/>
</g>
<defs>
<clipPath id="clip0_116_990">
<rect width="28" height="35" fill="white"/>
</clipPath>
</defs>
</svg>
